# xmcd
#
# Track frame offsets:
#	150
#	19717
#	39340
#
# Disc length: 836 seconds
#
# Revision: 0
# Processed by: cddbd v1.5.2PL0 Copyright (c) Steve Scherf et al.
# Submitted via: audiograbber 1.83.01
#
DISCID=17034203
DTITLE=Smokie - Remix
DYEAR=1900
DGENRE=
TTITLE0=Woh The f.... is Alice? Party Dance mix
TTITLE1=Woh The f.... is Alice? Tekkno-mix
TTITLE2=Woh The f.... is Alice? Go House Mix
EXTD=
EXTT0=
EXTT1=
EXTT2=
PLAYORDER=
